<svg width="126" height="126" viewBox="0 0 126 126" fill="none" xmlns="http://www.w3.org/2000/svg">
<path d="M7.6252 118.358L0 110.716L55.2472 55.3582L110.494 0L118.079 7.5981C122.25 11.7771 125.663 15.273 125.663 15.3668C125.663 15.5343 15.5027 126 15.3357 126C15.2887 126 11.819 122.561 7.6252 118.358ZM98.4627 124.306C91.6476 122.936 86.1716 118.73 83.0526 112.468C81.6651 109.683 80.9223 106.376 80.9223 102.983C80.9223 100.497 81.2462 98.4955 82.0274 96.1542C83.1629 92.7506 84.757 90.1967 87.3527 87.6225C89.8089 85.1864 92.3951 83.5603 95.4374 82.539C98.2208 81.6046 99.2148 81.4512 102.53 81.4447C105.274 81.4393 105.76 81.4837 107.367 81.8868C111.711 82.9759 114.752 84.6742 117.79 87.7061C122.193 92.1016 124.316 97.5768 124.079 103.924C123.982 106.522 123.693 108.05 122.858 110.377C120.25 117.642 114.158 122.825 106.471 124.318C104.279 124.744 100.613 124.739 98.4627 124.306ZM20.2512 44.7311C18.1996 44.3675 17.5919 44.2247 16.1838 43.7747C9.73917 41.7156 4.75132 36.8286 2.39618 30.2656C1.22475 27.0013 0.911736 22.4476 1.61952 18.9675C3.20029 11.195 8.67058 5.00669 16.1155 2.56894C20.6879 1.07175 26.237 1.20294 30.589 2.91108C37.0023 5.4283 41.9652 10.9416 43.7149 17.4928C46.311 27.213 41.8971 37.5302 33.1311 42.2318C29.9015 43.964 27.2012 44.6606 23.3864 44.7457C21.895 44.779 20.4842 44.7724 20.2512 44.7311Z" fill="#E09E9E"/>
</svg>
