<svg width="145" height="126" viewBox="0 0 145 126" fill="none" xmlns="http://www.w3.org/2000/svg">
<path d="M90.973 34.7129C92.4808 36.6559 94.3078 38.3379 96.251 39.5559C98.948 41.296 101.79 42.195 104.719 42.195C115.565 42.195 124.004 29.899 124.004 19.3429C124.004 8.67097 115.362 0 104.719 0C94.0469 0 85.376 8.67097 85.376 19.3429C85.376 24.476 87.4058 30.1309 90.799 34.5099C90.828 34.5389 90.9149 34.626 90.973 34.7129Z" fill="#E09E9E"/>
<path d="M74.8924 70.7098C73.3124 72.1789 71.6557 73.4685 69.917 74.5261C65.533 77.3667 60.7157 78.8506 55.737 78.8506C48.3693 78.8506 41.7769 75.6568 36.5033 70.7413C15.231 78.5963 0 99.0106 0 122.96C0 124.584 1.30486 125.86 2.9 125.86H108.547C108.576 125.86 108.605 125.86 108.605 125.86C110.229 125.86 111.505 124.584 111.505 122.96C111.505 122.757 111.505 122.554 111.447 122.38C111.198 98.6269 96.0206 78.474 74.8924 70.7098Z" fill="#E09E9E"/>
<path d="M121.461 40.0658C117.09 44.8041 111.294 47.9957 104.72 47.9957C100.684 47.9957 96.7759 46.7949 93.1085 44.4301C91.2779 43.2821 89.5093 41.7861 87.9253 40.0676C87.8074 40.1216 87.697 40.1908 87.5796 40.246C87.6113 40.8274 87.6681 41.4025 87.6681 41.9918C87.6681 50.0517 84.5132 58.9811 79.2202 65.9422C79.1634 66.027 79.1097 66.0773 79.0527 66.1546C86.69 69.3001 93.4851 73.8978 99.1476 79.576H142.1C143.695 79.576 145 78.271 145 76.676C145 60.4444 135.334 46.4469 121.461 40.0658Z" fill="#E09E9E"/>
<path d="M55.7379 73.051C59.595 73.051 63.3649 71.8619 66.903 69.571C69.571 67.947 72.0359 65.6849 74.2109 62.93C74.298 62.843 74.3849 62.7559 74.443 62.6399C79.0829 56.6369 81.8669 48.923 81.8669 41.992C81.8669 27.579 70.151 15.8629 55.7379 15.8629C41.325 15.8629 29.6089 27.579 29.6089 41.992C29.6089 56.347 41.0349 73.051 55.7379 73.051Z" fill="#E09E9E"/>
</svg>
