<svg width="40" height="40" viewBox="0 0 40 40" fill="none" xmlns="http://www.w3.org/2000/svg">
<path d="M20.0045 0C18.6554 0 17.2542 1.44511 17.2857 2.66675V18.6672C17.2644 20.0761 18.4924 21.334 20.0045 21.334C21.5166 21.334 22.7446 20.0761 22.7232 18.6672V2.66675C22.7651 1.0531 21.3535 0 20.0045 0ZM10.4351 6.66687C10.1856 6.71832 9.94392 6.80276 9.71963 6.91687C1.13558 11.1077 -1.49416 19.7117 0.776419 26.8343C3.04699 33.9545 10.1629 40 19.9149 40C29.5284 40 36.7344 34.2692 39.1441 27.2503C41.5509 20.2311 38.9781 11.7208 30.2009 6.99901C28.9588 6.32272 27.1702 6.75927 26.4433 7.91557C25.7175 9.07187 26.1857 10.7394 27.4278 11.4157C34.2698 15.0953 35.677 20.7344 33.9562 25.7494C32.2356 30.7645 27.248 34.9164 19.9155 34.9164C12.5437 34.9164 7.61648 30.5157 5.96406 25.3326C4.31106 20.1498 5.82955 14.5376 12.2237 11.4157C13.3075 10.8655 13.881 9.56895 13.5282 8.46705C13.1756 7.36489 11.9335 6.57286 10.7035 6.66567C10.614 6.66167 10.5244 6.66167 10.4351 6.66567V6.66687Z" fill="#FFBFBF"/>
</svg>
