<svg width="43" height="33" viewBox="0 0 43 33" fill="none" xmlns="http://www.w3.org/2000/svg">
<path d="M40.1356 13.5989H9.80941L18.5845 4.85027C19.7211 3.71703 19.7211 1.90385 18.5845 0.815934C18.0389 0.271978 17.3114 0 16.5385 0C15.7655 0 15.0381 0.317308 14.4925 0.861264L0.852498 14.5055C-0.284166 15.6387 -0.284166 17.4519 0.852498 18.5398L14.4925 32.1841C15.0381 32.728 15.7655 33 16.5385 33C17.3114 33 18.0389 32.728 18.5845 32.1841C19.1301 31.6401 19.4483 30.9148 19.4483 30.1442C19.4483 29.3736 19.1301 28.6483 18.6299 28.1044L9.80941 19.3104H40.1356C41.7269 19.3104 43 18.0412 43 16.4547C43 14.8681 41.7269 13.5989 40.1356 13.5989Z" fill="#FFBFBF"/>
</svg>
