<svg width="44" height="37" viewBox="0 0 44 37" fill="none" xmlns="http://www.w3.org/2000/svg">
<path d="M33.6 8.064C33.024 7.488 32 7.936 32 8.832V14.976H19.52C18.88 14.976 18.368 15.488 18.368 16.128V20.352C18.368 20.992 18.88 21.504 19.52 21.504H32V27.712C32 28.608 32.96 29.056 33.6 28.48L43.072 19.008C43.456 18.624 43.456 17.92 43.072 17.536L33.6 8.064Z" fill="#FFBFBF"/>
<path d="M25.408 30.016H8.576C8 30.016 7.488 29.568 7.488 29.056V7.552C7.488 7.04 7.936 6.592 8.576 6.592H25.408C26.048 6.592 26.56 6.144 26.56 5.568V1.024C26.56 0.448 26.048 0 25.408 0H2.368C1.088 0 0 0.960001 0 2.048V34.496C0 35.648 1.088 36.544 2.368 36.544H25.408C26.048 36.544 26.56 36.096 26.56 35.52V30.912C26.56 30.464 26.048 30.016 25.408 30.016Z" fill="#FFBFBF"/>
</svg>
