<svg width="69" height="126" viewBox="0 0 69 126" fill="none" xmlns="http://www.w3.org/2000/svg">
<path d="M0 73.1655H68.337C68.0682 67.788 66.7138 62.5209 64.3556 57.6828C61.9975 52.8446 58.6846 48.5358 54.6173 45.0169V7.87008H56.2929C56.7239 7.85999 57.1485 7.76401 57.5421 7.58775C57.9356 7.41149 58.2902 7.15847 58.5851 6.84345C58.88 6.52844 59.1093 6.15774 59.2597 5.75298C59.4101 5.34821 59.4786 4.9175 59.4611 4.48595V3.4366C59.4787 2.99162 59.4064 2.54765 59.2485 2.13135C59.0907 1.71505 58.8504 1.33501 58.5423 1.01405C58.2342 0.693079 57.8645 0.437805 57.4555 0.263549C57.0465 0.0892935 56.6065 -0.000349755 56.162 1.0255e-06H11.9917C11.1143 0.0341812 10.286 0.414712 9.68751 1.05855C9.08907 1.70239 8.76909 2.55726 8.79741 3.4366V4.56465C8.79029 5.42541 9.12125 6.25446 9.71887 6.87287C10.3165 7.49128 11.1328 7.84945 11.9917 7.87008H13.6412V44.9906C9.5898 48.5235 6.29295 52.8405 3.94877 57.6822C1.60458 62.524 0.261424 67.7905 0 73.1655Z" fill="#E09E9E"/>
<path d="M33.3569 125.37C33.3569 125.537 33.4231 125.698 33.5409 125.816C33.6588 125.934 33.8186 126 33.9852 126C34.1519 126 34.3117 125.934 34.4296 125.816C34.5474 125.698 34.6136 125.537 34.6136 125.37L40.9499 77.0481H27.0206L33.3569 125.37Z" fill="#E09E9E"/>
</svg>
